<?xml version="1.0" encoding="UTF-8"?>
<svg xmlns="http://www.w3.org/2000/svg" viewBox="0 0 2304 558">
  <defs>
    <style>
      .cls-1, .cls-2, .cls-3, .cls-4, .cls-5, .cls-6, .cls-7, .cls-8, .cls-9, .cls-10, .cls-11 {
        stroke-miterlimit: 10;
      }

      .cls-1, .cls-2, .cls-3, .cls-4, .cls-5, .cls-7, .cls-8, .cls-9, .cls-10, .cls-11 {
        stroke: #231f20;
      }

      .cls-1, .cls-5, .cls-7 {
        fill: none;
      }

      .cls-2 {
        fill: #d2e1f3;
      }

      .cls-12 {
        fill: #010101;
      }

      .cls-3 {
        fill: #e6d9eb;
      }

      .cls-4 {
        fill: #f4f4f5;
      }

      .cls-13, .cls-14, .cls-15 {
        fill: #231f20;
      }

      .cls-16 {
        fill: #e0f0e2;
      }

      .cls-5 {
        stroke-dasharray: 3.1 3.1;
      }

      .cls-17 {
        fill: #fef1f1;
      }

      .cls-18, .cls-15 {
        isolation: isolate;
      }

      .cls-19 {
        letter-spacing: 0em;
      }

      .cls-20 {
        fill: #020202;
      }

      .cls-6 {
        stroke: #000;
      }

      .cls-6, .cls-21, .cls-8, .cls-22 {
        fill: #fff;
      }

      .cls-23 {
        letter-spacing: 0em;
      }

      .cls-14, .cls-22, .cls-15 {
        font-family: IBMPlexSans, 'IBM Plex Sans';
        font-size: 12px;
      }

      .cls-7 {
        stroke-dasharray: 3 3;
      }

      .cls-24 {
        letter-spacing: -.018em;
      }

      .cls-25 {
        letter-spacing: -.02em;
      }

      .cls-26 {
        letter-spacing: -.015em;
      }

      .cls-27 {
        letter-spacing: -.018em;
      }

      .cls-28 {
        letter-spacing: -.017em;
      }

      .cls-29 {
        letter-spacing: -.014em;
      }

      .cls-30 {
        letter-spacing: -.006em;
      }

      .cls-31 {
        letter-spacing: -.007em;
      }

      .cls-32 {
        letter-spacing: -.0059em;
      }

      .cls-33 {
        letter-spacing: -.006em;
      }

      .cls-34 {
        letter-spacing: -.005em;
      }

      .cls-35 {
        letter-spacing: -.005em;
      }

      .cls-36 {
        letter-spacing: -.004em;
      }

      .cls-37 {
        letter-spacing: -.004em;
      }

      .cls-9 {
        fill: #e1f0e2;
      }

      .cls-38 {
        letter-spacing: -.01em;
      }

      .cls-39 {
        letter-spacing: -.009em;
      }

      .cls-40 {
        letter-spacing: -.01em;
      }

      .cls-41 {
        letter-spacing: -.007em;
      }

      .cls-42 {
        letter-spacing: -.008em;
      }

      .cls-43 {
        letter-spacing: -.008em;
      }

      .cls-10 {
        fill: #dcf1f4;
      }

      .cls-44 {
        letter-spacing: -.003em;
      }

      .cls-45 {
        letter-spacing: -.002em;
      }

      .cls-46 {
        letter-spacing: -.002em;
      }

      .cls-11 {
        fill: #273b91;
      }

      .cls-47 {
        letter-spacing: .004em;
      }

      .cls-48 {
        letter-spacing: .01em;
      }

      .cls-49 {
        letter-spacing: .01em;
      }
    </style>
  </defs>
  <g id="Background">
    <rect class="cls-8" x="17.2559" y="439.8252" width="848.7845" height="57.5667" rx="12.495" ry="12.495"/>
    <rect class="cls-3" x="90.6351" y="456.3868" width="116.5838" height="24.3486" rx="6.4702" ry="6.4702"/>
    <rect class="cls-10" x="242.4214" y="457.0753" width="88.7834" height="24.3486" rx="6.4702" ry="6.4702"/>
    <rect class="cls-11" x="513.4807" y="457.0753" width="161.8964" height="24.3486" rx="6.4702" ry="6.4702"/>
    <rect class="cls-2" x="702.5508" y="457.4848" width="142.8777" height="24.3486" rx="6.4702" ry="6.4702"/>
    <path class="cls-12" d="M398.612,460.6591h-21.6c-.9941,0-1.8.8059-1.8,1.8v14.4c0,.9941.8059,1.8,1.8,1.8h21.6c.9941,0,1.8-.8059,1.8-1.8v-14.4c0-.9941-.8059-1.8-1.8-1.8ZM396.632,462.4591l-8.82,6.102-8.82-6.102h17.64ZM377.012,476.8591v-13.581l10.287,7.119c.3085.214.7175.214,1.026,0l10.287-7.119v13.581h-21.6Z"/>
    <line class="cls-1" x1="61.0077" y1="439.703" x2="61.0077" y2="497.4192"/>
    <rect class="cls-8" x="17.2559" y="318.6911" width="2262.0603" height="106.4008" rx="14.4839" ry="14.4839"/>
    <rect class="cls-8" x="17.2559" y="212.0557" width="2262.0603" height="106.4008" rx="14.4839" ry="14.4839"/>
    <rect class="cls-8" x="17.2559" y="30.2174" width="2262.0603" height="182.334" rx="14.4839" ry="14.4839"/>
    <line class="cls-1" x1="61.0077" y1="30.2174" x2="61.0077" y2="214.5514"/>
    <line class="cls-1" x1="61.0077" y1="210.5514" x2="61.0077" y2="316.9522"/>
    <line class="cls-1" x1="61.0077" y1="316.9522" x2="61.0077" y2="425.0919"/>
  </g>
  <g id="Flow">
    <g>
      <line class="cls-1" x1="784.0919" y1="172.6703" x2="784.0919" y2="174.5687"/>
      <line class="cls-7" x1="784.0919" y1="178.254" x2="784.0919" y2="220.3556"/>
      <line class="cls-1" x1="784.0919" y1="222.2541" x2="784.0919" y2="224.0409"/>
      <polygon class="cls-13" points="779.0919 222.3658 784.0919 232.975 789.0919 222.3658 779.0919 222.3658"/>
    </g>
    <g>
      <line class="cls-1" x1="863.0919" y1="185.5807" x2="863.0919" y2="187.411"/>
      <line class="cls-5" x1="863.0919" y1="191.1793" x2="863.0919" y2="233.8155"/>
      <line class="cls-1" x1="863.0919" y1="235.7535" x2="863.0919" y2="237.5838"/>
      <polygon class="cls-13" points="858.1918 187.411 863.0919 177.075 868.0919 187.411 858.1918 187.411"/>
    </g>
    <g>
      <rect class="cls-17" x="746.2918" y="182.875" width="75.7" height="24.3" rx="6.5" ry="6.5"/>
      <rect class="cls-7" x="746.2918" y="182.875" width="75.7" height="24.3" rx="6.5" ry="6.5"/>
    </g>
    <g>
      <rect class="cls-16" x="825.2918" y="206.7749" width="75.7" height="24.4" rx="6.5" ry="6.5"/>
      <rect class="cls-7" x="825.2918" y="206.7749" width="75.7" height="24.4" rx="6.5" ry="6.5"/>
    </g>
    <g>
      <line class="cls-1" x1="568.0919" y1="172.6703" x2="568.0919" y2="174.5618"/>
      <line class="cls-7" x1="568.0919" y1="178.2334" x2="568.0919" y2="220.4022"/>
      <line class="cls-1" x1="568.0919" y1="222.2937" x2="568.0919" y2="224.0739"/>
      <polygon class="cls-13" points="563.0919 222.405 568.0919 232.975 572.9918 222.405 563.0919 222.405"/>
    </g>
    <g>
      <line class="cls-1" x1="647.0919" y1="185.7482" x2="647.0919" y2="187.5913"/>
      <line class="cls-5" x1="647.0919" y1="191.2775" x2="647.0919" y2="234.1019"/>
      <line class="cls-1" x1="647.0919" y1="235.8365" x2="647.0919" y2="237.6796"/>
      <polygon class="cls-13" points="642.0919 187.5913 647.0919 177.075 652.0919 187.5913 642.0919 187.5913"/>
    </g>
    <g>
      <rect class="cls-17" x="530.1918" y="182.675" width="75.7" height="24.4" rx="6.5" ry="6.5"/>
      <rect class="cls-7" x="530.1918" y="182.675" width="75.7" height="24.4" rx="6.5" ry="6.5"/>
    </g>
    <g>
      <rect class="cls-16" x="609.1918" y="206.575" width="75.7" height="24.4" rx="6.5" ry="6.5"/>
      <rect class="cls-7" x="609.1918" y="206.575" width="75.7" height="24.4" rx="6.5" ry="6.5"/>
    </g>
    <g>
      <line class="cls-1" x1="900.9918" y1="219.575" x2="902.4846" y2="219.575"/>
      <line class="cls-7" x1="905.4703" y1="219.575" x2="1210.1067" y2="219.575"/>
      <line class="cls-1" x1="1211.699" y1="219.575" x2="1213.1918" y2="219.575"/>
    </g>
    <rect class="cls-9" x="137.2052" y="51.3758" width="75.7033" height="24.3486" rx="6.4702" ry="6.4702"/>
    <g>
      <line class="cls-1" x1="175.0568" y1="75.7244" x2="175.0568" y2="96.7605"/>
      <polygon class="cls-13" points="170.0705 95.3015 175.0568 103.9367 180.0432 95.3015 170.0705 95.3015"/>
    </g>
    <g>
      <line class="cls-1" x1="259.9976" y1="141.5026" x2="275.0504" y2="141.5971"/>
      <polygon class="cls-13" points="273.5601 146.5741 282.2265 141.6421 273.6228 136.6017 273.5601 146.5741"/>
    </g>
    <rect class="cls-3" x="80.0703" y="110.4744" width="179.5894" height="62.1959" rx="10.6273" ry="10.6273"/>
    <circle class="cls-6" cx="80.1515" cy="110.4139" r="10.6882"/>
    <rect class="cls-3" x="299.7129" y="110.4744" width="179.5894" height="62.1959" rx="10.6273" ry="10.6273"/>
    <circle class="cls-6" cx="299.7941" cy="110.4139" r="10.6882"/>
    <g>
      <line class="cls-1" x1="479.8644" y1="141.5026" x2="494.9172" y2="141.5971"/>
      <polygon class="cls-13" points="493.4269 146.5741 502.0933 141.6421 493.4895 136.6017 493.4269 146.5741"/>
    </g>
    <g>
      <line class="cls-1" x1="700.2758" y1="141.5026" x2="715.3286" y2="141.5971"/>
      <polygon class="cls-13" points="713.8384 146.5741 722.5047 141.6421 713.901 136.6017 713.8384 146.5741"/>
    </g>
    <rect class="cls-3" x="520.1407" y="110.4744" width="179.5894" height="62.1959" rx="10.6273" ry="10.6273"/>
    <circle class="cls-6" cx="520.072" cy="110.4139" r="10.6882"/>
    <rect class="cls-3" x="739.7833" y="110.4744" width="179.5894" height="62.1959" rx="10.6273" ry="10.6273"/>
    <circle class="cls-6" cx="739.2466" cy="110.4139" r="10.6882"/>
    <g>
      <line class="cls-1" x1="919.1426" y1="141.5026" x2="934.1954" y2="141.5971"/>
      <polygon class="cls-13" points="932.7052 146.5741 941.3715 141.6421 932.7677 136.6017 932.7052 146.5741"/>
    </g>
    <g>
      <line class="cls-1" x1="1141.7535" y1="141.5026" x2="1156.8062" y2="141.5971"/>
      <polygon class="cls-13" points="1155.316 146.5741 1163.9824 141.6421 1155.3786 136.6017 1155.316 146.5741"/>
    </g>
    <rect class="cls-3" x="961.8261" y="110.4744" width="179.5894" height="62.1959" rx="10.6273" ry="10.6273"/>
    <rect class="cls-10" x="1181.4688" y="110.4744" width="179.5894" height="62.1959" rx="10.6273" ry="10.6273"/>
    <circle class="cls-6" cx="1181.8102" cy="110.4139" r="10.6882"/>
    <g>
      <line class="cls-1" x1="1583.0317" y1="141.5026" x2="1598.0846" y2="141.5971"/>
      <polygon class="cls-13" points="1596.5942 146.5741 1605.2606 141.6421 1596.6568 136.6017 1596.5942 146.5741"/>
    </g>
    <rect class="cls-3" x="1402.2708" y="110.4744" width="179.5894" height="62.1959" rx="10.6273" ry="10.6273"/>
    <circle class="cls-6" cx="1402.619" cy="110.4139" r="10.6882"/>
    <rect class="cls-3" x="1620.7671" y="110.4744" width="179.5894" height="62.1959" rx="10.6273" ry="10.6273"/>
    <circle class="cls-6" cx="1622.5767" cy="110.4139" r="10.6882"/>
    <circle class="cls-6" cx="961.8856" cy="110.4139" r="10.6882"/>
    <rect class="cls-2" x="1839.2487" y="110.4744" width="179.5894" height="62.1959" rx="10.6273" ry="10.6273"/>
    <circle class="cls-6" cx="1839.227" cy="110.4139" r="10.6882"/>
    <rect class="cls-3" x="2059.8664" y="110.4744" width="179.5894" height="62.1959" rx="10.6273" ry="10.6273"/>
    <circle class="cls-6" cx="2059.9567" cy="110.4139" r="10.6882"/>
    <rect class="cls-11" x="2189.1072" y="95.121" width="68.6744" height="24.3486" rx="6.4702" ry="6.4702"/>
    <rect class="cls-3" x="520.1407" y="237.9332" width="179.5894" height="62.1959" rx="10.6273" ry="10.6273"/>
    <rect class="cls-3" x="739.7833" y="237.9332" width="179.5894" height="62.1959" rx="10.6273" ry="10.6273"/>
    <circle class="cls-6" cx="520.072" cy="237.5838" r="10.6882"/>
    <circle class="cls-6" cx="739.2466" cy="237.5838" r="10.6882"/>
    <rect class="cls-2" x="1620.7671" y="237.9332" width="179.5894" height="62.1959" rx="10.6273" ry="10.6273"/>
    <circle class="cls-6" cx="1622.5767" cy="237.5838" r="10.6882"/>
    <rect class="cls-2" x="1839.2487" y="237.9332" width="179.5894" height="62.1959" rx="10.6273" ry="10.6273"/>
    <circle class="cls-6" cx="1839.227" cy="237.5838" r="10.6882"/>
    <rect class="cls-2" x="1620.7671" y="348.3907" width="179.5894" height="62.1959" rx="10.6273" ry="10.6273"/>
    <circle class="cls-6" cx="1622.5767" cy="349.2063" r="10.6882"/>
    <rect class="cls-4" x="1402.2708" y="348.3907" width="179.5894" height="62.1959" rx="10.6273" ry="10.6273"/>
    <rect class="cls-10" x="1181.4688" y="348.3907" width="179.5894" height="62.1959" rx="10.6273" ry="10.6273"/>
    <circle class="cls-6" cx="1402.619" cy="349.2063" r="10.6882"/>
    <circle class="cls-6" cx="1181.8102" cy="349.2063" r="10.6882"/>
    <rect class="cls-11" x="1529.626" y="330.5745" width="68.6744" height="24.3486" rx="6.4702" ry="6.4702"/>
    <rect class="cls-11" x="1529.626" y="95.121" width="68.6744" height="24.3486" rx="6.4702" ry="6.4702"/>
    <g>
      <line class="cls-1" x1="1361.0582" y1="379.4188" x2="1376.111" y2="379.5133"/>
      <polygon class="cls-13" points="1374.6208 384.4904 1383.2872 379.5583 1374.6834 374.5179 1374.6208 384.4904"/>
    </g>
    <g>
      <line class="cls-1" x1="1710.5618" y1="172.6703" x2="1710.5618" y2="225.9904"/>
      <polygon class="cls-13" points="1705.5755 224.5314 1710.5618 233.1666 1715.5482 224.5314 1705.5755 224.5314"/>
    </g>
    <g>
      <line class="cls-1" x1="1710.5618" y1="302.5244" x2="1710.5618" y2="335.5726"/>
      <polygon class="cls-13" points="1705.5755 334.1136 1710.5618 342.7488 1715.5482 334.1136 1705.5755 334.1136"/>
    </g>
    <g>
      <line class="cls-1" x1="1929.0434" y1="239.4063" x2="1929.0434" y2="186.0862"/>
      <polygon class="cls-13" points="1934.0297 187.5452 1929.0434 178.91 1924.0571 187.5452 1934.0297 187.5452"/>
    </g>
    <g>
      <line class="cls-1" x1="1929.0434" y1="379.4886" x2="1929.0434" y2="314.7924"/>
      <polygon class="cls-13" points="1934.0297 316.2514 1929.0434 307.6162 1924.0571 316.2514 1934.0297 316.2514"/>
    </g>
    <line class="cls-1" x1="1800.3566" y1="379.4886" x2="1929.0435" y2="379.4886"/>
    <g>
      <line class="cls-1" x1="1270.5074" y1="172.6703" x2="1270.5074" y2="335.5726"/>
      <polygon class="cls-13" points="1265.5211 334.1136 1270.5074 342.7488 1275.4937 334.1136 1265.5211 334.1136"/>
    </g>
    <g>
      <line class="cls-1" x1="1492.0655" y1="347.2849" x2="1492.0655" y2="184.3825"/>
      <polygon class="cls-13" points="1497.0518 185.8415 1492.0655 177.2063 1487.0792 185.8415 1497.0518 185.8415"/>
    </g>
    <g>
      <rect class="cls-21" x="1480.3915" y="260.573" width="23.3479" height="16.9164"/>
      <path class="cls-20" d="M1502.8655,260.0312h-21.6c-1,0-1.8.8-1.8,1.8v14.4c0,1,.8,1.8,1.8,1.8h21.6c1,0,1.8-.8,1.8-1.8v-14.4c0-1-.8-1.8-1.8-1.8ZM1500.8655,261.8312l-8.8,6.1-8.8-6.1h17.6001ZM1481.2654,276.2312v-13.6l10.3,7.1c.3.2.7.2,1,0l10.3-7.1v13.6h-21.6001Z"/>
    </g>
    <g>
      <line class="cls-1" x1="1214.6418" y1="182.4789" x2="1214.6418" y2="183.6965"/>
      <line class="cls-5" x1="1214.6418" y1="186.2034" x2="1214.6418" y2="214.567"/>
      <line class="cls-1" x1="1214.6418" y1="215.8562" x2="1214.6418" y2="217.0739"/>
      <polygon class="cls-13" points="1209.7418 183.6965 1214.6418 176.8205 1219.6418 183.6965 1209.7418 183.6965"/>
    </g>
    <rect class="cls-9" x="2111.8095" y="52.086" width="75.7033" height="24.3486" rx="6.4702" ry="6.4702"/>
    <g>
      <line class="cls-1" x1="2020.1601" y1="141.5026" x2="2035.2131" y2="141.5971"/>
      <polygon class="cls-13" points="2033.7229 146.5741 2042.3891 141.6421 2033.7854 136.6017 2033.7229 146.5741"/>
    </g>
    <g>
      <line class="cls-1" x1="2149.6611" y1="109.5522" x2="2149.6611" y2="88.5161"/>
      <polygon class="cls-13" points="2154.6474 89.9751 2149.6611 81.3399 2144.6748 89.9751 2154.6474 89.9751"/>
    </g>
  </g>
  <g id="Text">
    <g class="cls-18">
      <g class="cls-18">
        <g class="cls-18">
          <g class="cls-18">
            <g class="cls-18">
              <g class="cls-18">
                <g class="cls-18">
                  <g class="cls-18">
                    <text class="cls-15" transform="translate(762.3919 198.675)"><tspan x="0" y="0">R</tspan></text>
                  </g>
                </g>
              </g>
            </g>
          </g>
        </g>
      </g>
      <g class="cls-18">
        <g class="cls-18">
          <g class="cls-18">
            <g class="cls-18">
              <g class="cls-18">
                <g class="cls-18">
                  <g class="cls-18">
                    <text class="cls-15" transform="translate(769.8919 198.675)"><tspan x="0" y="0">eque</tspan></text>
                  </g>
                </g>
              </g>
            </g>
          </g>
        </g>
      </g>
      <g class="cls-18">
        <g class="cls-18">
          <g class="cls-18">
            <g class="cls-18">
              <g class="cls-18">
                <g class="cls-18">
                  <g class="cls-18">
                    <text class="cls-15" transform="translate(796.7918 198.675)"><tspan x="0" y="0">s</tspan></text>
                  </g>
                </g>
              </g>
            </g>
          </g>
        </g>
      </g>
      <g class="cls-18">
        <g class="cls-18">
          <g class="cls-18">
            <g class="cls-18">
              <g class="cls-18">
                <g class="cls-18">
                  <g class="cls-18">
                    <text class="cls-15" transform="translate(802.5919 198.675)"><tspan x="0" y="0">t</tspan></text>
                  </g>
                </g>
              </g>
            </g>
          </g>
        </g>
      </g>
    </g>
    <g class="cls-18">
      <g class="cls-18">
        <g class="cls-18">
          <g class="cls-18">
            <g class="cls-18">
              <g class="cls-18">
                <g class="cls-18">
                  <g class="cls-18">
                    <text class="cls-15" transform="translate(840.6919 222.475)"><tspan x="0" y="0">App</tspan></text>
                  </g>
                </g>
              </g>
            </g>
          </g>
        </g>
      </g>
      <g class="cls-18">
        <g class="cls-18">
          <g class="cls-18">
            <g class="cls-18">
              <g class="cls-18">
                <g class="cls-18">
                  <g class="cls-18">
                    <text class="cls-15" transform="translate(862.2919 222.475)"><tspan x="0" y="0">r</tspan></text>
                  </g>
                </g>
              </g>
            </g>
          </g>
        </g>
      </g>
      <g class="cls-18">
        <g class="cls-18">
          <g class="cls-18">
            <g class="cls-18">
              <g class="cls-18">
                <g class="cls-18">
                  <g class="cls-18">
                    <text class="cls-15" transform="translate(866.5919 222.475)"><tspan class="cls-42" x="0" y="0">o</tspan><tspan x="6.624" y="0">v</tspan></text>
                  </g>
                </g>
              </g>
            </g>
          </g>
        </g>
      </g>
      <g class="cls-18">
        <g class="cls-18">
          <g class="cls-18">
            <g class="cls-18">
              <g class="cls-18">
                <g class="cls-18">
                  <g class="cls-18">
                    <text class="cls-15" transform="translate(878.9919 222.475)"><tspan x="0" y="0">e</tspan></text>
                  </g>
                </g>
              </g>
            </g>
          </g>
        </g>
      </g>
    </g>
    <g class="cls-18">
      <g class="cls-18">
        <g class="cls-18">
          <g class="cls-18">
            <g class="cls-18">
              <g class="cls-18">
                <g class="cls-18">
                  <g class="cls-18">
                    <text class="cls-15" transform="translate(546.2918 198.475)"><tspan x="0" y="0">R</tspan></text>
                  </g>
                </g>
              </g>
            </g>
          </g>
        </g>
      </g>
      <g class="cls-18">
        <g class="cls-18">
          <g class="cls-18">
            <g class="cls-18">
              <g class="cls-18">
                <g class="cls-18">
                  <g class="cls-18">
                    <text class="cls-15" transform="translate(553.7918 198.475)"><tspan x="0" y="0">eque</tspan></text>
                  </g>
                </g>
              </g>
            </g>
          </g>
        </g>
      </g>
      <g class="cls-18">
        <g class="cls-18">
          <g class="cls-18">
            <g class="cls-18">
              <g class="cls-18">
                <g class="cls-18">
                  <g class="cls-18">
                    <text class="cls-15" transform="translate(580.6919 198.475)"><tspan x="0" y="0">s</tspan></text>
                  </g>
                </g>
              </g>
            </g>
          </g>
        </g>
      </g>
      <g class="cls-18">
        <g class="cls-18">
          <g class="cls-18">
            <g class="cls-18">
              <g class="cls-18">
                <g class="cls-18">
                  <g class="cls-18">
                    <text class="cls-15" transform="translate(586.4918 198.475)"><tspan x="0" y="0">t</tspan></text>
                  </g>
                </g>
              </g>
            </g>
          </g>
        </g>
      </g>
    </g>
    <g class="cls-18">
      <g class="cls-18">
        <g class="cls-18">
          <g class="cls-18">
            <g class="cls-18">
              <g class="cls-18">
                <g class="cls-18">
                  <g class="cls-18">
                    <text class="cls-15" transform="translate(624.5919 222.375)"><tspan x="0" y="0">App</tspan></text>
                  </g>
                </g>
              </g>
            </g>
          </g>
        </g>
      </g>
      <g class="cls-18">
        <g class="cls-18">
          <g class="cls-18">
            <g class="cls-18">
              <g class="cls-18">
                <g class="cls-18">
                  <g class="cls-18">
                    <text class="cls-15" transform="translate(646.1919 222.375)"><tspan x="0" y="0">r</tspan></text>
                  </g>
                </g>
              </g>
            </g>
          </g>
        </g>
      </g>
      <g class="cls-18">
        <g class="cls-18">
          <g class="cls-18">
            <g class="cls-18">
              <g class="cls-18">
                <g class="cls-18">
                  <g class="cls-18">
                    <text class="cls-15" transform="translate(650.5919 222.375)"><tspan class="cls-42" x="0" y="0">o</tspan><tspan x="6.624" y="0">v</tspan></text>
                  </g>
                </g>
              </g>
            </g>
          </g>
        </g>
      </g>
      <g class="cls-18">
        <g class="cls-18">
          <g class="cls-18">
            <g class="cls-18">
              <g class="cls-18">
                <g class="cls-18">
                  <g class="cls-18">
                    <text class="cls-15" transform="translate(662.9918 222.375)"><tspan x="0" y="0">e</tspan></text>
                  </g>
                </g>
              </g>
            </g>
          </g>
        </g>
      </g>
    </g>
    <text class="cls-14" transform="translate(161.9288 68.3243)"><tspan x="0" y="0">Sta</tspan><tspan class="cls-47" x="17.5918" y="0">r</tspan><tspan class="cls-23" x="22.0435" y="0">t</tspan></text>
    <text class="cls-14" transform="translate(958.2857 114.4259)"><tspan x="0" y="0">5</tspan></text>
    <text class="cls-14" transform="translate(75.6617 114.4259)"><tspan x="0" y="0">1</tspan></text>
    <text class="cls-14" transform="translate(109.4898 472.1852)"><tspan class="cls-38" x="0" y="0">P</tspan><tspan x="7.1519" y="0">a</tspan><tspan class="cls-47" x="13.5601" y="0">r</tspan><tspan x="18.0117" y="0">tner Cen</tspan><tspan class="cls-37" x="63.7192" y="0">t</tspan><tspan x="67.8833" y="0">er</tspan></text>
    <text class="cls-14" transform="translate(266.4135 472.8738)"><tspan x="0" y="0">Catalog</tspan></text>
    <text class="cls-22" transform="translate(542.6549 472.8739)"><tspan x="0" y="0">En</tspan><tspan class="cls-44" x="13.812" y="0">g</tspan><tspan x="20.1118" y="0">a</tspan><tspan class="cls-30" x="26.52" y="0">g</tspan><tspan class="cls-23" x="32.7837" y="0">ement </tspan><tspan class="cls-41" x="70.2954" y="0">s</tspan><tspan x="76.0557" y="0">tatus</tspan></text>
    <text class="cls-14" transform="translate(729.5062 473.2834)"><tspan class="cls-38" x="0" y="0">P</tspan><tspan class="cls-34" x="7.1519" y="0">a</tspan><tspan x="13.5" y="0">yment </tspan><tspan class="cls-24" x="50.4116" y="0">s</tspan><tspan class="cls-37" x="56.0396" y="0">y</tspan><tspan class="cls-41" x="61.9795" y="0">s</tspan><tspan class="cls-37" x="67.7397" y="0">t</tspan><tspan x="71.9038" y="0">em</tspan></text>
    <text class="cls-14" transform="translate(403.6503 473.283)"><tspan x="0" y="0">Notification</tspan></text>
    <text class="cls-14" transform="translate(45.1278 487.1508) rotate(-90)"><tspan class="cls-40" x="0" y="0">L</tspan><tspan x="5.8921" y="0">e</tspan><tspan class="cls-33" x="12.48" y="0">g</tspan><tspan x="18.7441" y="0">end</tspan></text>
    <text class="cls-14" transform="translate(45.128 388.058) rotate(-90)"><tspan x="0" y="0">Client</tspan></text>
    <text class="cls-14" transform="translate(45.128 277.9681) rotate(-90)"><tspan x="0" y="0">IBM</tspan></text>
    <text class="cls-14" transform="translate(45.1278 197.767) rotate(-90)"><tspan x="0" y="0">Consu</tspan><tspan class="cls-35" x="33.6475" y="0">l</tspan><tspan x="36.8516" y="0">ting </tspan><tspan class="cls-38" x="60.0474" y="0">P</tspan><tspan class="cls-35" x="67.1992" y="0">r</tspan><tspan x="71.5435" y="0">oject Mana</tspan><tspan class="cls-33" x="130.3066" y="0">g</tspan><tspan x="136.5708" y="0">er</tspan></text>
    <g>
      <path class="cls-13" d="M91.3139,132.3915v-.8394h1.1753v-6.6924h-1.1753v-.8398h3.3579v.8398h-1.1753v6.6924h1.1753v.8394h-3.3579Z"/>
      <path class="cls-13" d="M96.4135,132.3915v-6.1885h.9595v1.0073h.0479c.2998-.6958.8276-1.1514,1.751-1.1514,1.2715,0,2.0752.8638,2.0752,2.3628v3.9697h-.96v-3.8018c0-1.1035-.4795-1.667-1.4028-1.667-.7676,0-1.5112.3838-1.5112,1.1753v4.2935h-.9595Z"/>
      <path class="cls-13" d="M103.1215,124.2118v-.1558c0-.3237.1797-.5396.5874-.5396s.5879.2158.5879.5396v.1558c0,.3242-.1802.54-.5879.54s-.5874-.2158-.5874-.54ZM103.2294,126.203h.9595v6.1885h-.9595v-6.1885Z"/>
      <path class="cls-13" d="M107.5966,132.3915c-.6597,0-1.0195-.4199-1.0195-1.0195v-4.3296h-1.0195v-.8394h.5757c.4077,0,.54-.144.54-.564v-1.1514h.8633v1.7153h1.3555v.8394h-1.3555v4.5098h1.2593v.8394h-1.1992Z"/>
      <path class="cls-13" d="M110.3335,124.2118v-.1558c0-.3237.1797-.5396.5874-.5396s.5879.2158.5879.5396v.1558c0,.3242-.1802.54-.5879.54s-.5874-.2158-.5874-.54ZM110.4414,126.203h.9595v6.1885h-.9595v-6.1885Z"/>
      <path class="cls-13" d="M117.9389,132.3915c-.7075,0-.9956-.4316-1.0674-1.0073h-.0601c-.2637.7554-.9233,1.1514-1.7871,1.1514-1.3071,0-2.0747-.7197-2.0747-1.8711,0-1.1636.8394-1.811,2.6382-1.811h1.2236v-.6118c0-.8755-.48-1.355-1.4634-1.355-.7437,0-1.2354.3599-1.5708.9233l-.5757-.5396c.3354-.6597,1.0791-1.2114,2.1948-1.2114,1.4868,0,2.3745.7798,2.3745,2.0869v3.4062h.7075v.8394h-.5396ZM116.8115,130.5927v-1.0195h-1.2715c-1.0913,0-1.583.3359-1.583.9355v.252c0,.6113.4795.959,1.2231.959.9478,0,1.6313-.4917,1.6313-1.127Z"/>
      <path class="cls-13" d="M121.2168,132.3915c-.6597,0-1.0195-.4199-1.0195-1.0195v-4.3296h-1.0195v-.8394h.5757c.4077,0,.54-.144.54-.564v-1.1514h.8633v1.7153h1.3555v.8394h-1.3555v4.5098h1.2593v.8394h-1.1992Z"/>
      <path class="cls-13" d="M123.5576,129.2972c0-1.9668,1.1035-3.2383,2.7827-3.2383,1.6553,0,2.6743,1.2715,2.6743,3.0225v.4556h-4.4492v.2881c0,1.0674.6836,1.8706,1.835,1.8706.7793,0,1.3789-.3838,1.7031-1.0674l.6836.4917c-.396.8398-1.2832,1.4155-2.4468,1.4155-1.6792,0-2.7827-1.2715-2.7827-3.2383ZM124.5654,128.7333v.084h3.418v-.1318c0-1.0913-.6597-1.8228-1.6431-1.8228-1.0435,0-1.7749.7915-1.7749,1.8706Z"/>
      <path class="cls-13" d="M132.9775,129.2972c0-1.979,1.0195-3.2383,2.7588-3.2383,1.2231,0,1.9551.5996,2.3145,1.4512l-.8032.4077c-.228-.6357-.7559-1.0073-1.5112-1.0073-1.1396,0-1.7271.7798-1.7271,1.8589v1.0557c0,1.0791.5874,1.8589,1.7271,1.8589.7793,0,1.3433-.3721,1.6792-1.0796l.6953.4678c-.3955.8877-1.1992,1.4634-2.3745,1.4634-1.7393,0-2.7588-1.2593-2.7588-3.2383Z"/>
      <path class="cls-13" d="M139.4692,132.3915v-6.1885h.9595v1.1392h.0601c.2158-.5874.7793-1.1392,1.7866-1.1392h.3721v.9595h-.564c-1.0312,0-1.6548.4438-1.6548,1.0312v4.1978h-.9595Z"/>
      <path class="cls-13" d="M143.3574,129.2972c0-1.9668,1.1035-3.2383,2.7827-3.2383,1.6553,0,2.6743,1.2715,2.6743,3.0225v.4556h-4.4492v.2881c0,1.0674.6836,1.8706,1.835,1.8706.7793,0,1.3789-.3838,1.7031-1.0674l.6836.4917c-.396.8398-1.2832,1.4155-2.4468,1.4155-1.6792,0-2.7827-1.2715-2.7827-3.2383ZM144.3652,128.7333v.084h3.418v-.1318c0-1.0913-.6597-1.8228-1.6431-1.8228-1.0435,0-1.7749.7915-1.7749,1.8706Z"/>
      <path class="cls-13" d="M154.8989,132.3915c-.7075,0-.9956-.4316-1.0674-1.0073h-.0601c-.2637.7554-.9233,1.1514-1.7871,1.1514-1.3071,0-2.0747-.7197-2.0747-1.8711,0-1.1636.8394-1.811,2.6382-1.811h1.2236v-.6118c0-.8755-.48-1.355-1.4634-1.355-.7437,0-1.2354.3599-1.5708.9233l-.5757-.5396c.3354-.6597,1.0791-1.2114,2.1948-1.2114,1.4868,0,2.3745.7798,2.3745,2.0869v3.4062h.7075v.8394h-.5396ZM153.7714,130.5927v-1.0195h-1.2715c-1.0913,0-1.583.3359-1.583.9355v.252c0,.6113.4795.959,1.2231.959.9478,0,1.6313-.4917,1.6313-1.127Z"/>
      <path class="cls-13" d="M158.1762,132.3915c-.6597,0-1.0195-.4199-1.0195-1.0195v-4.3296h-1.0195v-.8394h.5757c.4077,0,.54-.144.54-.564v-1.1514h.8633v1.7153h1.3555v.8394h-1.3555v4.5098h1.2593v.8394h-1.1992Z"/>
      <path class="cls-13" d="M160.913,124.2118v-.1558c0-.3237.1797-.5396.5874-.5396s.5879.2158.5879.5396v.1558c0,.3242-.1802.54-.5879.54s-.5874-.2158-.5874-.54ZM161.021,126.203h.9595v6.1885h-.9595v-6.1885Z"/>
      <path class="cls-13" d="M163.5649,129.2972c0-1.9668,1.1396-3.2383,2.7944-3.2383s2.7949,1.2715,2.7949,3.2383-1.1396,3.2383-2.7949,3.2383-2.7944-1.2715-2.7944-3.2383ZM168.1225,129.7411v-.8877c0-1.3071-.7314-1.9429-1.7632-1.9429s-1.7627.6357-1.7627,1.9429v.8877c0,1.3071.7314,1.9429,1.7627,1.9429s1.7632-.6357,1.7632-1.9429Z"/>
      <path class="cls-13" d="M170.7412,132.3915v-6.1885h.9595v1.0073h.0479c.2998-.6958.8276-1.1514,1.751-1.1514,1.2715,0,2.0747.8638,2.0747,2.3628v3.9697h-.959v-3.8018c0-1.1035-.48-1.667-1.4033-1.667-.7676,0-1.5112.3838-1.5112,1.1753v4.2935h-.9595Z"/>
      <path class="cls-13" d="M179.9331,129.2972c0-1.9668,1.1396-3.2383,2.7944-3.2383s2.7949,1.2715,2.7949,3.2383-1.1396,3.2383-2.7949,3.2383-2.7944-1.2715-2.7944-3.2383ZM184.4907,129.7411v-.8877c0-1.3071-.7314-1.9429-1.7632-1.9429s-1.7627.6357-1.7627,1.9429v.8877c0,1.3071.7314,1.9429,1.7627,1.9429s1.7632-.6357,1.7632-1.9429Z"/>
      <path class="cls-13" d="M187.373,127.0424h-1.0078v-.8394h1.0078v-1.2476c0-.8516.4434-1.439,1.355-1.439h.9355v.8394h-1.3311v1.8472h1.3311v.8394h-1.3311v5.3491h-.9595v-5.3491Z"/>
      <path class="cls-13" d="M193.8525,124.0199h1.3433l2.3989,4.5098h.0601l2.4106-4.5098h1.2949v8.3716h-.9834v-7.0522h-.0596l-.708,1.4033-2.0029,3.646-2.0029-3.646-.7075-1.4033h-.0601v7.0522h-.9834v-8.3716Z"/>
      <path class="cls-13" d="M207.9985,132.3915c-.7075,0-.9956-.4316-1.0674-1.0073h-.0601c-.2637.7554-.9233,1.1514-1.7871,1.1514-1.3071,0-2.0747-.7197-2.0747-1.8711,0-1.1636.8394-1.811,2.6382-1.811h1.2236v-.6118c0-.8755-.48-1.355-1.4634-1.355-.7437,0-1.2354.3599-1.5708.9233l-.5757-.5396c.3354-.6597,1.0791-1.2114,2.1948-1.2114,1.4868,0,2.3745.7798,2.3745,2.0869v3.4062h.7075v.8394h-.5396ZM206.871,130.5927v-1.0195h-1.2715c-1.0913,0-1.583.3359-1.583.9355v.252c0,.6113.4795.959,1.2231.959.9478,0,1.6313-.4917,1.6313-1.127Z"/>
      <path class="cls-13" d="M209.9086,132.3915v-6.1885h.9595v1.0073h.0479c.2998-.6958.8276-1.1514,1.751-1.1514,1.2715,0,2.0752.8638,2.0752,2.3628v3.9697h-.96v-3.8018c0-1.1035-.4795-1.667-1.4028-1.667-.7676,0-1.5112.3838-1.5112,1.1753v4.2935h-.9595Z"/>
      <path class="cls-13" d="M221.2221,132.3915c-.7075,0-.9956-.4316-1.0674-1.0073h-.0601c-.2637.7554-.9233,1.1514-1.7871,1.1514-1.3071,0-2.0747-.7197-2.0747-1.8711,0-1.1636.8394-1.811,2.6382-1.811h1.2236v-.6118c0-.8755-.48-1.355-1.4634-1.355-.7437,0-1.2354.3599-1.5708.9233l-.5757-.5396c.3354-.6597,1.0791-1.2114,2.1948-1.2114,1.4868,0,2.3745.7798,2.3745,2.0869v3.4062h.7075v.8394h-.5396ZM220.0947,130.5927v-1.0195h-1.2715c-1.0913,0-1.583.3359-1.583.9355v.252c0,.6113.4795.959,1.2231.959.9478,0,1.6313-.4917,1.6313-1.127Z"/>
      <path class="cls-13" d="M225.3515,134.934c-1.9312,0-2.7227-.5518-2.7227-1.5229,0-.6719.3721-1.0317.9834-1.1992v-.1323c-.3477-.1675-.5518-.4434-.5518-.8633,0-.6235.4438-.9233,1.0674-1.0796v-.0479c-.7314-.3477-1.1631-1.0312-1.1631-1.895,0-1.2593.9233-2.1348,2.3267-2.1348.4438,0,.8394.084,1.1753.2397v-.1079c0-.4795.2041-.8276.7197-.8276h.9233v.8398h-1.1753v.3955c.4438.3838.7075.9355.7075,1.5952,0,1.2593-.9233,2.1348-2.3384,2.1348-.2041,0-.4199-.0239-.5996-.0601-.4082.1084-.8159.312-.8159.6958,0,.3716.3838.4678.9478.4678h1.3193c1.5352,0,2.1943.6235,2.1943,1.6431,0,1.2715-1.0073,1.8589-2.998,1.8589ZM226.1669,132.3314h-2.063c-.3955.1802-.5757.4561-.5757.8398,0,.5396.3721.9834,1.3433.9834h.8877c1.0674,0,1.6909-.3359,1.6909-1.0078,0-.4917-.3237-.8154-1.2832-.8154ZM226.6347,128.3617v-.3359c0-.8154-.5156-1.1992-1.3311-1.1992-.8159,0-1.3315.3838-1.3315,1.1992v.3359c0,.8154.5156,1.1992,1.3315,1.1992.8154,0,1.3311-.3838,1.3311-1.1992Z"/>
      <path class="cls-13" d="M228.9404,129.2972c0-1.9668,1.1035-3.2383,2.7827-3.2383,1.6553,0,2.6743,1.2715,2.6743,3.0225v.4556h-4.4492v.2881c0,1.0674.6836,1.8706,1.835,1.8706.7793,0,1.3789-.3838,1.7031-1.0674l.6836.4917c-.396.8398-1.2832,1.4155-2.4468,1.4155-1.6792,0-2.7827-1.2715-2.7827-3.2383ZM229.9482,128.7333v.084h3.418v-.1318c0-1.0913-.6597-1.8228-1.6431-1.8228-1.0435,0-1.7749.7915-1.7749,1.8706Z"/>
      <path class="cls-13" d="M239.9419,131.3842h-.0479c-.3716.7676-.9595,1.1514-1.811,1.1514-1.5469,0-2.5186-1.2593-2.5186-3.2383s.9717-3.2383,2.5186-3.2383c.8516,0,1.4873.3716,1.811,1.1514h.0479v-3.6938h.9595v8.875h-.9595v-1.0073ZM239.9419,130.4125v-2.3027c0-.6836-.7192-1.187-1.5947-1.187-1.0796,0-1.7515.7432-1.7515,1.8467v1.0557c0,1.103.6719,1.8467,1.7515,1.8467.8755,0,1.5947-.4556,1.5947-1.2593Z"/>
      <path class="cls-13" d="M91.7094,146.7914v-8.3716h3.3345c1.499,0,2.3384.9238,2.3384,2.3989s-.8394,2.3984-2.3384,2.3984h-2.3267v3.5742h-1.0078ZM92.7172,142.33h2.3267c.7915,0,1.2593-.4316,1.2593-1.1992v-.624c0-.7676-.4678-1.1992-1.2593-1.1992h-2.3267v3.0225Z"/>
      <path class="cls-13" d="M98.7656,146.7914v-6.1885h.9595v1.1392h.0601c.2158-.5874.7793-1.1392,1.7866-1.1392h.3721v.9595h-.564c-1.0312,0-1.6548.4438-1.6548,1.0312v4.1978h-.9595Z"/>
      <path class="cls-13" d="M102.6538,143.6971c0-1.9668,1.1396-3.2383,2.7944-3.2383s2.7949,1.2715,2.7949,3.2383-1.1396,3.2383-2.7949,3.2383-2.7944-1.2715-2.7944-3.2383ZM107.2114,144.141v-.8877c0-1.3071-.7314-1.9429-1.7632-1.9429s-1.7627.6357-1.7627,1.9429v.8877c0,1.3071.7314,1.9429,1.7627,1.9429s1.7632-.6357,1.7632-1.9429Z"/>
      <path class="cls-13" d="M110.0937,141.4423h-1.0078v-.8394h1.0078v-1.2476c0-.8516.4434-1.439,1.355-1.439h.9355v.8394h-1.3311v1.8472h1.3311v.8394h-1.3311v5.3491h-.9595v-5.3491Z"/>
      <path class="cls-13" d="M113.1416,143.6971c0-1.9668,1.1035-3.2383,2.7827-3.2383,1.6553,0,2.6743,1.2715,2.6743,3.0225v.4556h-4.4492v.2881c0,1.0674.6836,1.8706,1.835,1.8706.7793,0,1.3789-.3838,1.7031-1.0674l.6836.4917c-.396.8398-1.2832,1.4155-2.4468,1.4155-1.6792,0-2.7827-1.2715-2.7827-3.2383ZM114.1494,143.1332v.084h3.418v-.1318c0-1.0913-.6597-1.8228-1.6431-1.8228-1.0435,0-1.7749.7915-1.7749,1.8706Z"/>
      <path class="cls-13" d="M119.5976,145.724l.6836-.5518c.48.5996,1.0557.9478,1.835.9478.8159,0,1.2954-.3721,1.2954-1.0078,0-.4795-.2637-.8516-1.0796-.9712l-.4917-.0723c-1.1392-.168-1.9907-.6353-1.9907-1.7866,0-1.2236.9473-1.8232,2.207-1.8232.9951,0,1.6548.3716,2.1587.9956l-.6357.5757c-.2759-.3838-.8037-.7559-1.5952-.7559s-1.2114.3721-1.2114.9595c0,.5996.4199.8398,1.1875.9595l.48.0723c1.3672.2036,1.8945.8032,1.8945,1.7388,0,1.1992-.8755,1.9312-2.2905,1.9312-1.1392,0-1.895-.48-2.4468-1.2114Z"/>
      <path class="cls-13" d="M125.3696,145.724l.6836-.5518c.48.5996,1.0557.9478,1.835.9478.8159,0,1.2954-.3721,1.2954-1.0078,0-.4795-.2637-.8516-1.0791-.9712l-.4922-.0723c-1.1392-.168-1.9907-.6353-1.9907-1.7866,0-1.2236.9478-1.8232,2.207-1.8232.9951,0,1.6548.3716,2.1587.9956l-.6357.5757c-.2759-.3838-.8037-.7559-1.5952-.7559s-1.2114.3721-1.2114.9595c0,.5996.4199.8398,1.1875.9595l.48.0723c1.3672.2036,1.8945.8032,1.8945,1.7388,0,1.1992-.8755,1.9312-2.2905,1.9312-1.1392,0-1.895-.48-2.4468-1.2114Z"/>
      <path class="cls-13" d="M131.6938,138.6117v-.1558c0-.3237.1797-.5396.5874-.5396s.5879.2158.5879.5396v.1558c0,.3242-.1802.54-.5879.54s-.5874-.2158-.5874-.54ZM131.8017,140.6029h.9595v6.1885h-.9595v-6.1885Z"/>
      <path class="cls-13" d="M134.3457,143.6971c0-1.9668,1.1396-3.2383,2.7949-3.2383s2.7944,1.2715,2.7944,3.2383-1.1396,3.2383-2.7944,3.2383-2.7949-1.2715-2.7949-3.2383ZM138.9033,144.141v-.8877c0-1.3071-.7314-1.9429-1.7627-1.9429s-1.7632.6357-1.7632,1.9429v.8877c0,1.3071.7314,1.9429,1.7632,1.9429s1.7627-.6357,1.7627-1.9429Z"/>
      <path class="cls-13" d="M141.5214,146.7914v-6.1885h.9595v1.0073h.0479c.2998-.6958.8276-1.1514,1.751-1.1514,1.2715,0,2.0747.8633,2.0747,2.3628v3.9697h-.959v-3.8018c0-1.1035-.48-1.6675-1.4033-1.6675-.7676,0-1.5112.3838-1.5112,1.1758v4.2935h-.9595Z"/>
      <path class="cls-13" d="M152.8349,146.7914c-.7075,0-.9956-.4316-1.0674-1.0073h-.0601c-.2642.7554-.9233,1.1514-1.7871,1.1514-1.3071,0-2.0747-.7197-2.0747-1.8711,0-1.1636.8394-1.811,2.6387-1.811h1.2231v-.6118c0-.8755-.48-1.355-1.4634-1.355-.7437,0-1.2354.3599-1.5708.9233l-.5757-.5396c.3354-.6597,1.0791-1.2114,2.1943-1.2114,1.4873,0,2.375.7798,2.375,2.0869v3.4062h.7075v.8394h-.5396ZM151.7075,144.9926v-1.0195h-1.2715c-1.0913,0-1.583.3359-1.583.9355v.2515c0,.6118.48.96,1.2231.96.9478,0,1.6313-.4922,1.6313-1.1274Z"/>
      <path class="cls-13" d="M155.7651,146.7914c-.6597,0-1.0195-.4199-1.0195-.9956v-7.8794h.9595v8.0356h.9116v.8394h-.8516Z"/>
      <path class="cls-13" d="M160.3256,145.472l.7437-.6235c.5874.7793,1.2832,1.1992,2.2544,1.1992,1.1997,0,1.8472-.6235,1.8472-1.583,0-.7915-.4438-1.1875-1.5474-1.4395l-.6836-.1558c-1.5229-.3477-2.3628-1.0195-2.3628-2.3027,0-1.4873,1.1274-2.2905,2.7705-2.2905,1.2593,0,2.147.4795,2.7705,1.3672l-.7554.5518c-.4556-.6357-1.0913-1.0317-2.063-1.0317-1.0674,0-1.7271.4678-1.7271,1.3672,0,.7915.5156,1.1514,1.5713,1.3916l.6836.1558c1.6309.3716,2.3389,1.0913,2.3389,2.3389,0,1.5352-1.0796,2.5186-2.8784,2.5186-1.3433,0-2.291-.5518-2.9624-1.4634Z"/>
      <path class="cls-13" d="M167.3569,143.6971c0-1.9668,1.1035-3.2383,2.7827-3.2383,1.6553,0,2.6743,1.2715,2.6743,3.0225v.4556h-4.4492v.2881c0,1.0674.6836,1.8706,1.835,1.8706.7793,0,1.3789-.3838,1.7031-1.0674l.6836.4917c-.396.8398-1.2837,1.4155-2.4468,1.4155-1.6792,0-2.7827-1.2715-2.7827-3.2383ZM168.3647,143.1332v.084h3.418v-.1318c0-1.0913-.6597-1.8228-1.6431-1.8228-1.0435,0-1.7749.7915-1.7749,1.8706Z"/>
      <path class="cls-13" d="M174.4008,146.7914v-6.1885h.9595v1.1392h.0601c.2158-.5874.7793-1.1392,1.7866-1.1392h.3721v.9595h-.564c-1.0312,0-1.6548.4438-1.6548,1.0312v4.1978h-.9595Z"/>
      <path class="cls-13" d="M180.2919,146.7914l-2.1709-6.1885h.9595l1.0796,3.0703.6714,2.1108h.0601l.6719-2.1108,1.103-3.0703h.9238l-2.1831,6.1885h-1.1152Z"/>
      <path class="cls-13" d="M184.7207,138.6117v-.1558c0-.3237.1797-.5396.5874-.5396s.5879.2158.5879.5396v.1558c0,.3242-.1802.54-.5879.54s-.5874-.2158-.5874-.54ZM184.8286,140.6029h.9595v6.1885h-.9595v-6.1885Z"/>
      <path class="cls-13" d="M187.3725,143.6971c0-1.979,1.0195-3.2383,2.7588-3.2383,1.2231,0,1.9546.5996,2.3145,1.4512l-.8032.4077c-.228-.6357-.7559-1.0073-1.5112-1.0073-1.1396,0-1.7271.7793-1.7271,1.8589v1.0557c0,1.0791.5874,1.8589,1.7271,1.8589.7793,0,1.3433-.3721,1.6792-1.0796l.6953.4678c-.3955.8877-1.1992,1.4634-2.3745,1.4634-1.7393,0-2.7588-1.2593-2.7588-3.2383Z"/>
      <path class="cls-13" d="M193.3364,143.6971c0-1.9668,1.1035-3.2383,2.7827-3.2383,1.6553,0,2.6743,1.2715,2.6743,3.0225v.4556h-4.4492v.2881c0,1.0674.6836,1.8706,1.835,1.8706.7793,0,1.3789-.3838,1.7031-1.0674l.6836.4917c-.396.8398-1.2837,1.4155-2.4468,1.4155-1.6792,0-2.7827-1.2715-2.7827-3.2383ZM194.3442,143.1332v.084h3.418v-.1318c0-1.0913-.6597-1.8228-1.6431-1.8228-1.0435,0-1.7749.7915-1.7749,1.8706Z"/>
      <path class="cls-13" d="M204.5795,146.7914c-.6597,0-1.0195-.4199-1.0195-1.0195v-4.3296h-1.0195v-.8394h.5757c.4077,0,.54-.144.54-.564v-1.1514h.8633v1.7153h1.3555v.8394h-1.3555v4.5098h1.2593v.8394h-1.1992Z"/>
      <path class="cls-13" d="M207.3164,138.6117v-.1558c0-.3237.1797-.5396.5874-.5396s.5879.2158.5879.5396v.1558c0,.3242-.1802.54-.5879.54s-.5874-.2158-.5874-.54ZM207.4243,140.6029h.9595v6.1885h-.9595v-6.1885Z"/>
      <path class="cls-13" d="M211.4438,146.7914c-.6597,0-1.0195-.4199-1.0195-.9956v-7.8794h.9595v8.0356h.9116v.8394h-.8516Z"/>
      <path class="cls-13" d="M213.2324,143.6971c0-1.9668,1.1035-3.2383,2.7827-3.2383,1.6553,0,2.6743,1.2715,2.6743,3.0225v.4556h-4.4492v.2881c0,1.0674.6836,1.8706,1.835,1.8706.7793,0,1.3789-.3838,1.7031-1.0674l.6836.4917c-.396.8398-1.2832,1.4155-2.4468,1.4155-1.6792,0-2.7827-1.2715-2.7827-3.2383ZM214.2402,143.1332v.084h3.418v-.1318c0-1.0913-.6597-1.8228-1.6431-1.8228-1.0435,0-1.7749.7915-1.7749,1.8706Z"/>
    </g>
    <text class="cls-14" transform="translate(295.3685 114.4262)"><tspan x="0" y="0">2</tspan></text>
    <text class="cls-14" transform="translate(310.3009 132.3916)"><tspan x="0" y="0">Upda</tspan><tspan class="cls-37" x="28.4634" y="0">t</tspan><tspan x="32.6274" y="0">e p</tspan><tspan class="cls-34" x="49.0073" y="0">r</tspan><tspan x="53.3511" y="0">oduct details and</tspan><tspan x="0" y="14.3999">catalog ent</tspan><tspan class="cls-49" x="59.8315" y="14.3999">r</tspan><tspan class="cls-23" x="64.355" y="14.3999">y in</tspan><tspan class="cls-37" x="82.9907" y="14.3999">f</tspan><tspan class="cls-23" x="86.8306" y="14.3999">ormation</tspan></text>
    <text class="cls-14" transform="translate(513.268 114.4259)"><tspan x="0" y="0">3a</tspan></text>
    <text class="cls-14" transform="translate(529.8422 132.3913)"><tspan x="0" y="0">C</tspan><tspan class="cls-35" x="7.4517" y="0">r</tspan><tspan x="11.7959" y="0">ea</tspan><tspan class="cls-37" x="24.7915" y="0">t</tspan><tspan x="28.9556" y="0">e pricing plan, add</tspan><tspan x="0" y="14.3999">metric</tspan><tspan class="cls-35" x="34.7153" y="14.3999">s</tspan><tspan class="cls-23" x="40.4995" y="14.3999">, and </tspan><tspan class="cls-35" x="69.6108" y="14.3999">r</tspan><tspan x="73.9551" y="14.3999">eque</tspan><tspan class="cls-41" x="100.9067" y="14.3999">s</tspan><tspan x="106.667" y="14.3999">t</tspan><tspan x="0" y="28.7998">app</tspan><tspan class="cls-34" x="20.3276" y="28.7998">r</tspan><tspan class="cls-43" x="24.6714" y="28.7998">o</tspan><tspan class="cls-39" x="31.2954" y="28.7998">v</tspan><tspan x="37.0918" y="28.7998">al</tspan></text>
    <text class="cls-14" transform="translate(732.4427 114.4262)"><tspan x="0" y="0">4a</tspan></text>
    <text class="cls-14" transform="translate(749.549 132.3916)"><tspan x="0" y="0">Submit me</tspan><tspan class="cls-37" x="58.3311" y="0">t</tspan><tspan x="62.4951" y="0">ering</tspan><tspan class="cls-42" x="0" y="14.3999">e</tspan><tspan x="6.4922" y="14.3999">viden</tspan><tspan class="cls-33" x="35.7598" y="14.3999">c</tspan><tspan x="41.7236" y="14.3999">e</tspan></text>
    <text class="cls-14" transform="translate(972.35 132.3917)"><tspan x="0" y="0">Upda</tspan><tspan class="cls-37" x="28.4634" y="0">t</tspan><tspan x="32.6274" y="0">e suppo</tspan><tspan class="cls-47" x="75.3472" y="0">r</tspan><tspan x="79.7988" y="0">t</tspan><tspan x="0" y="14.3999">in</tspan><tspan class="cls-37" x="9.8159" y="14.3999">f</tspan><tspan class="cls-23" x="13.6558" y="14.3999">ormation</tspan></text>
    <text class="cls-14" transform="translate(1178.2103 114.4262)"><tspan x="0" y="0">6</tspan></text>
    <text class="cls-14" transform="translate(1192.0567 132.3915)"><tspan x="0" y="0">Publish Mana</tspan><tspan class="cls-30" x="72.1792" y="0">g</tspan><tspan class="cls-23" x="78.4429" y="0">ed</tspan><tspan class="cls-38" x="0" y="14.3999">P</tspan><tspan class="cls-35" x="7.1519" y="14.3999">r</tspan><tspan class="cls-30" x="11.4961" y="14.3999">o</tspan><tspan class="cls-37" x="18.144" y="14.3999">f</tspan><tspan x="21.9839" y="14.3999">e</tspan><tspan class="cls-33" x="28.5718" y="14.3999">s</tspan><tspan class="cls-23" x="34.3438" y="14.3999">sional se</tspan><tspan class="cls-48" x="81.6592" y="14.3999">r</tspan><tspan x="86.1831" y="14.3999">vi</tspan><tspan class="cls-30" x="95.0869" y="14.3999">c</tspan><tspan class="cls-23" x="101.0508" y="14.3999">e tile</tspan></text>
    <text class="cls-14" transform="translate(1398.767 114.4259)"><tspan x="0" y="0">9</tspan></text>
    <text class="cls-14" transform="translate(1414.0141 132.3917)"><tspan class="cls-26" x="0" y="0">R</tspan><tspan class="cls-42" x="7.5" y="0">e</tspan><tspan x="13.9922" y="0">vi</tspan><tspan class="cls-34" x="22.896" y="0">e</tspan><tspan x="29.4238" y="0">w </tspan><tspan class="cls-33" x="41.4717" y="0">c</tspan><tspan class="cls-23" x="47.4355" y="0">onfi</tspan><tspan class="cls-37" x="67.7754" y="0">g</tspan><tspan x="74.0635" y="0">u</tspan><tspan class="cls-37" x="80.8794" y="0">r</tspan><tspan x="85.2354" y="0">ation.</tspan><tspan class="cls-26" x="0" y="14.3999">R</tspan><tspan x="7.5" y="14.3999">each out </tspan><tspan class="cls-37" x="56.7593" y="14.3999">t</tspan><tspan x="60.9233" y="14.3999">o the client or</tspan><tspan x="0" y="28.7998">app</tspan><tspan class="cls-34" x="20.3276" y="28.7998">r</tspan><tspan class="cls-43" x="24.6714" y="28.7998">ov</tspan><tspan x="37.1035" y="28.7998">e the </tspan><tspan class="cls-34" x="66.9712" y="28.7998">r</tspan><tspan class="cls-23" x="71.3149" y="28.7998">eque</tspan><tspan class="cls-41" x="98.2671" y="28.7998">s</tspan><tspan x="104.0269" y="28.7998">t</tspan></text>
    <text class="cls-14" transform="translate(1615.3764 114.4261)"><tspan x="0" y="0">10</tspan></text>
    <text class="cls-14" transform="translate(1632.9641 132.3915)"><tspan x="0" y="0">Deli</tspan><tspan class="cls-43" x="20.9038" y="0">v</tspan><tspan x="26.7114" y="0">er p</tspan><tspan class="cls-35" x="47.4951" y="0">r</tspan><tspan class="cls-33" x="51.8394" y="0">o</tspan><tspan class="cls-37" x="58.4873" y="0">f</tspan><tspan x="62.3271" y="0">e</tspan><tspan class="cls-33" x="68.915" y="0">s</tspan><tspan class="cls-23" x="74.687" y="0">sional</tspan><tspan x="0" y="14.3999">se</tspan><tspan class="cls-49" x="12.4321" y="14.3999">r</tspan><tspan class="cls-23" x="16.9556" y="14.3999">vi</tspan><tspan class="cls-30" x="25.8599" y="14.3999">c</tspan><tspan x="31.8237" y="14.3999">es and add a bi</tspan><tspan class="cls-35" x="112.4624" y="14.3999">l</tspan><tspan x="115.6665" y="14.3999">ling</tspan><tspan x="0" y="28.7998">ent</tspan><tspan class="cls-48" x="17.6157" y="28.7998">r</tspan><tspan x="22.1396" y="28.7998">y</tspan></text>
    <text class="cls-14" transform="translate(1832.0272 114.4259)"><tspan x="0" y="0">14</tspan></text>
    <text class="cls-14" transform="translate(1850.8721 132.3917)"><tspan class="cls-26" x="0" y="0">R</tspan><tspan x="7.5" y="0">e</tspan><tspan class="cls-30" x="14.0879" y="0">c</tspan><tspan x="20.0518" y="0">ei</tspan><tspan class="cls-42" x="29.6396" y="0">v</tspan><tspan x="35.4478" y="0">e </tspan><tspan class="cls-34" x="44.8677" y="0">ro</tspan><tspan class="cls-29" x="55.8716" y="0">y</tspan><tspan x="61.6919" y="0">a</tspan><tspan class="cls-35" x="68.0996" y="0">l</tspan><tspan x="71.3037" y="0">ties</tspan></text>
    <text class="cls-14" transform="translate(2052.9171 114.4261)"><tspan x="0" y="0">15</tspan></text>
    <text class="cls-14" transform="translate(2070.8494 132.3915)"><tspan x="0" y="0">Mark as </tspan><tspan class="cls-30" x="44.7954" y="0">c</tspan><tspan class="cls-23" x="50.7593" y="0">omple</tspan><tspan class="cls-36" x="84.7671" y="0">t</tspan><tspan class="cls-23" x="88.9307" y="0">e when a</tspan><tspan class="cls-34" x="137.0264" y="0">l</tspan><tspan class="cls-23" x="140.23" y="0">l</tspan><tspan x="0" y="14.3999">se</tspan><tspan class="cls-49" x="12.4321" y="14.3999">r</tspan><tspan class="cls-23" x="16.9556" y="14.3999">vi</tspan><tspan class="cls-30" x="25.8599" y="14.3999">c</tspan><tspan x="31.8237" y="14.3999">es a</tspan><tspan class="cls-34" x="53.4956" y="14.3999">r</tspan><tspan x="57.8394" y="14.3999">e deli</tspan><tspan class="cls-42" x="87.0708" y="14.3999">v</tspan><tspan x="92.8789" y="14.3999">e</tspan><tspan class="cls-34" x="99.4668" y="14.3999">r</tspan><tspan class="cls-23" x="103.8105" y="14.3999">ed or the</tspan><tspan x="0" y="28.7998">client </tspan><tspan class="cls-34" x="32.7476" y="28.7998">r</tspan><tspan x="37.0913" y="28.7998">eque</tspan><tspan class="cls-41" x="64.043" y="28.7998">s</tspan><tspan x="69.8032" y="28.7998">ts</tspan></text>
    <text class="cls-14" transform="translate(513.2678 241.2079)"><tspan x="0" y="0">3b</tspan></text>
    <text class="cls-14" transform="translate(529.8426 257.9476)"><tspan class="cls-38" x="0" y="0">E</tspan><tspan class="cls-33" x="6.876" y="0">c</tspan><tspan class="cls-23" x="12.8398" y="0">o</tspan><tspan class="cls-27" x="19.5601" y="0">s</tspan><tspan class="cls-37" x="25.188" y="0">y</tspan><tspan class="cls-41" x="31.1279" y="0">s</tspan><tspan class="cls-37" x="36.8882" y="0">t</tspan><tspan x="41.0522" y="0">em </tspan><tspan class="cls-37" x="60.9478" y="0">t</tspan><tspan x="65.1118" y="0">eam </tspan><tspan class="cls-34" x="91.4155" y="0">r</tspan><tspan class="cls-42" x="95.7593" y="0">e</tspan><tspan x="102.2515" y="0">vi</tspan><tspan class="cls-34" x="111.1553" y="0">e</tspan><tspan class="cls-45" x="117.6831" y="0">w</tspan><tspan x="126.8755" y="0">s</tspan><tspan x="0" y="14.3999">and app</tspan><tspan class="cls-34" x="43.3433" y="14.3999">r</tspan><tspan class="cls-43" x="47.687" y="14.3999">ov</tspan><tspan x="60.1191" y="14.3999">es pricing</tspan><tspan class="cls-33" x="0" y="28.7998">c</tspan><tspan class="cls-23" x="5.9639" y="28.7998">onfi</tspan><tspan class="cls-37" x="26.3037" y="28.7998">g</tspan><tspan x="32.5918" y="28.7998">u</tspan><tspan class="cls-37" x="39.4077" y="28.7998">r</tspan><tspan x="43.7637" y="28.7998">ation</tspan></text>
    <text class="cls-14" transform="translate(732.4425 241.2077)"><tspan x="0" y="0">4b</tspan></text>
    <text class="cls-14" transform="translate(749.5493 257.9474)"><tspan x="0" y="0">Bi</tspan><tspan class="cls-35" x="10.8359" y="0">l</tspan><tspan x="14.04" y="0">ling </tspan><tspan class="cls-37" x="36.2876" y="0">t</tspan><tspan x="40.4517" y="0">eam </tspan><tspan class="cls-34" x="66.7554" y="0">r</tspan><tspan class="cls-42" x="71.0991" y="0">e</tspan><tspan x="77.5913" y="0">vi</tspan><tspan class="cls-35" x="86.4951" y="0">e</tspan><tspan class="cls-46" x="93.0234" y="0">w</tspan><tspan x="102.2153" y="0">s</tspan><tspan x="0" y="14.3999">and app</tspan><tspan class="cls-34" x="43.3433" y="14.3999">r</tspan><tspan class="cls-43" x="47.687" y="14.3999">ov</tspan><tspan x="60.1191" y="14.3999">es pricing</tspan><tspan class="cls-33" x="0" y="28.7998">c</tspan><tspan class="cls-23" x="5.9639" y="28.7998">onfi</tspan><tspan class="cls-37" x="26.3037" y="28.7998">g</tspan><tspan x="32.5918" y="28.7998">u</tspan><tspan class="cls-37" x="39.4077" y="28.7998">r</tspan><tspan x="43.7637" y="28.7998">ation</tspan></text>
    <text class="cls-14" transform="translate(2133.5698 69.0345)"><tspan x="0" y="0">Finish</tspan></text>
    <text class="cls-22" transform="translate(2197.3388 111.6726)"><tspan x="0" y="0">Comple</tspan><tspan class="cls-37" x="41.4595" y="0">t</tspan><tspan x="45.6235" y="0">e</tspan></text>
    <text class="cls-14" transform="translate(1615.3767 241.208)"><tspan x="0" y="0">11</tspan></text>
    <text class="cls-14" transform="translate(1632.9643 257.9477)"><tspan class="cls-38" x="0" y="0">R</tspan><tspan x="7.5601" y="0">aise i</tspan><tspan class="cls-43" x="35.2319" y="0">nv</tspan><tspan class="cls-23" x="47.7598" y="0">oi</tspan><tspan class="cls-30" x="57.48" y="0">c</tspan><tspan x="63.4438" y="0">e </tspan><tspan class="cls-36" x="72.8638" y="0">t</tspan><tspan class="cls-23" x="77.0273" y="0">o client</tspan></text>
    <text class="cls-14" transform="translate(1832.0269 241.2077)"><tspan x="0" y="0">13</tspan></text>
    <text class="cls-14" transform="translate(1850.8724 257.9474)"><tspan class="cls-26" x="0" y="0">R</tspan><tspan x="7.5" y="0">e</tspan><tspan class="cls-30" x="14.0879" y="0">c</tspan><tspan x="20.0518" y="0">ei</tspan><tspan class="cls-42" x="29.6396" y="0">v</tspan><tspan x="35.4478" y="0">e p</tspan><tspan class="cls-34" x="51.8276" y="0">a</tspan><tspan class="cls-23" x="58.1753" y="0">yment and</tspan><tspan class="cls-35" x="0" y="14.3999">r</tspan><tspan x="4.3442" y="14.3999">elease </tspan><tspan class="cls-34" x="42.4556" y="14.3999">ro</tspan><tspan class="cls-29" x="53.4595" y="14.3999">y</tspan><tspan x="59.2798" y="14.3999">a</tspan><tspan class="cls-35" x="65.6875" y="14.3999">l</tspan><tspan x="68.8916" y="14.3999">ty</tspan></text>
    <text class="cls-14" transform="translate(1615.3767 352.8304)"><tspan x="0" y="0">12</tspan></text>
    <text class="cls-14" transform="translate(1632.9638 369.0248)"><tspan class="cls-26" x="0" y="0">R</tspan><tspan x="7.5" y="0">e</tspan><tspan class="cls-30" x="14.0879" y="0">c</tspan><tspan x="20.0518" y="0">ei</tspan><tspan class="cls-42" x="29.6396" y="0">v</tspan><tspan x="35.4478" y="0">e i</tspan><tspan class="cls-43" x="47.8677" y="0">nv</tspan><tspan x="60.3955" y="0">oi</tspan><tspan class="cls-30" x="70.1157" y="0">c</tspan><tspan x="76.0796" y="0">e and ma</tspan><tspan class="cls-28" x="125.3989" y="0">k</tspan><tspan x="131.5186" y="0">e</tspan><tspan x="0" y="14.3999">a p</tspan><tspan class="cls-34" x="16.1997" y="14.3999">a</tspan><tspan x="22.5479" y="14.3999">yment</tspan></text>
    <text class="cls-14" transform="translate(1398.767 352.8307)"><tspan x="0" y="0">8</tspan></text>
    <text class="cls-14" transform="translate(1414.0142 369.0251)"><tspan x="0" y="0">Confi</tspan><tspan class="cls-37" x="27.7915" y="0">g</tspan><tspan x="34.0796" y="0">u</tspan><tspan class="cls-35" x="40.8955" y="0">r</tspan><tspan x="45.2397" y="0">e the se</tspan><tspan class="cls-48" x="87.5391" y="0">r</tspan><tspan x="92.063" y="0">vi</tspan><tspan class="cls-30" x="100.9668" y="0">c</tspan><tspan x="106.9307" y="0">e</tspan><tspan x="0" y="14.3999">in</tspan><tspan class="cls-31" x="9.8159" y="14.3999">s</tspan><tspan x="15.5762" y="14.3999">tan</tspan><tspan class="cls-32" x="33.0117" y="14.3999">c</tspan><tspan x="38.9761" y="14.3999">e </tspan><tspan class="cls-34" x="48.3955" y="14.3999">b</tspan><tspan class="cls-23" x="55.2954" y="14.3999">y p</tspan><tspan class="cls-35" x="71.0752" y="14.3999">r</tspan><tspan class="cls-42" x="75.4194" y="14.3999">o</tspan><tspan x="82.0435" y="14.3999">viding a name</tspan><tspan x="0" y="28.7998">and </tspan><tspan class="cls-33" x="23.0156" y="28.7998">c</tspan><tspan class="cls-23" x="28.9795" y="28.7998">ontact in</tspan><tspan class="cls-37" x="76.0312" y="28.7998">f</tspan><tspan class="cls-19" x="79.8711" y="28.7998">ormation</tspan></text>
    <text class="cls-14" transform="translate(1178.2104 352.8302)"><tspan x="0" y="0">7</tspan></text>
    <text class="cls-14" transform="translate(1192.057 369.0247)"><tspan x="0" y="0">Submit me</tspan><tspan class="cls-37" x="58.3311" y="0">t</tspan><tspan x="62.4951" y="0">ering</tspan><tspan class="cls-42" x="0" y="14.3999">e</tspan><tspan x="6.4922" y="14.3999">viden</tspan><tspan class="cls-33" x="35.7598" y="14.3999">c</tspan><tspan x="41.7236" y="14.3999">e</tspan></text>
    <text class="cls-22" transform="translate(1542.1897 346.373)"><tspan class="cls-25" x="0" y="0">P</tspan><tspan class="cls-23" x="7.0317" y="0">ending</tspan></text>
    <text class="cls-22" transform="translate(1547.2955 111.6728)"><tspan x="0" y="0">Acti</tspan><tspan class="cls-43" x="20.9399" y="0">v</tspan><tspan x="26.7476" y="0">e</tspan></text>
  </g>
</svg>