<?xml version="1.0" encoding="UTF-8"?>
<svg xmlns="http://www.w3.org/2000/svg" viewBox="0 0 794.23 476.99"><defs><style>.cls-1,.cls-28,.cls-33,.cls-35,.cls-37{fill:#fff;stroke-miterlimit:10;}.cls-1{stroke:#000;stroke-linecap:round;stroke-width:0.79px;}.cls-2,.cls-29{font-size:12px;}.cls-2{font-family:IBMPlexSans, IBM Plex Sans;}.cls-3{letter-spacing:-0.01em;}.cls-4{letter-spacing:0em;}.cls-5{letter-spacing:0em;}.cls-6{letter-spacing:-0.01em;}.cls-7{letter-spacing:-0.01em;}.cls-8{letter-spacing:-0.01em;}.cls-9{letter-spacing:-0.02em;}.cls-10{letter-spacing:0em;}.cls-11{letter-spacing:0em;}.cls-12{letter-spacing:-0.03em;}.cls-13{letter-spacing:-0.01em;}.cls-14{letter-spacing:-0.01em;}.cls-15{letter-spacing:-0.01em;}.cls-16{letter-spacing:0.01em;}.cls-17{letter-spacing:0.01em;}.cls-18{letter-spacing:-0.01em;}.cls-19{letter-spacing:-0.01em;}.cls-20{letter-spacing:0em;}.cls-21{letter-spacing:-0.01em;}.cls-22{letter-spacing:-0.01em;}.cls-23{letter-spacing:0.01em;}.cls-24{letter-spacing:-0.01em;}.cls-25{letter-spacing:-0.02em;}.cls-26{fill:#0f62fe;}.cls-27{fill:#002d9c;}.cls-28{stroke:#002d9c;}.cls-28,.cls-33,.cls-35,.cls-37{stroke-width:6.99px;}.cls-29{font-family:IBMPlexSans-Italic, IBM Plex Sans;font-style:italic;}.cls-30{letter-spacing:-0.01em;}.cls-31{letter-spacing:-0.02em;}.cls-32{letter-spacing:0em;}.cls-33{stroke:#0f62fe;}.cls-34{fill:#78a9ff;}.cls-35{stroke:#78a9ff;}.cls-36{fill:#d0e2ff;}.cls-37{stroke:#d0e2ff;}.cls-38{letter-spacing:0.02em;}.cls-39{letter-spacing:0em;}</style></defs><g id="Text"><rect class="cls-1" x="110.69" y="275.07" width="132.57" height="54.36"/><rect class="cls-1" x="256.59" y="275.07" width="132.57" height="54.36"/><rect class="cls-1" x="402.22" y="275.07" width="132.57" height="54.36"/><text class="cls-2" transform="translate(115.69 291.47)">Upload a <tspan class="cls-3" x="50.52" y="0">r</tspan><tspan x="54.86" y="0">eadme </tspan><tspan x="0" y="14.4">that describes h</tspan><tspan class="cls-4" x="86.35" y="14.4">o</tspan><tspan x="93.01" y="14.4">w </tspan><tspan class="cls-5" x="0" y="28.8">t</tspan><tspan x="4.16" y="28.8">o in</tspan><tspan class="cls-6" x="23.53" y="28.8">s</tspan><tspan x="29.29" y="28.8">ta</tspan><tspan class="cls-4" x="39.91" y="28.8">l</tspan><tspan x="43.12" y="28.8">l the s</tspan><tspan class="cls-7" x="75.5" y="28.8">o</tspan><tspan x="82.15" y="28.8">ft</tspan><tspan class="cls-8" x="90.25" y="28.8">w</tspan><tspan x="99.36" y="28.8">a</tspan><tspan class="cls-3" x="105.77" y="28.8">r</tspan><tspan class="cls-9" x="110.11" y="28.8">e</tspan><tspan class="cls-10" x="116.46" y="28.8">.</tspan></text><rect class="cls-1" x="110.69" y="391.39" width="132.57" height="54.36"/><rect class="cls-1" x="256.59" y="391.39" width="132.57" height="54.36"/><text class="cls-2" transform="translate(261.59 291.47)">Comple<tspan class="cls-5" x="41.46" y="0">t</tspan><tspan x="45.62" y="0">e the</tspan><tspan x="0" y="14.4">s</tspan><tspan class="cls-7" x="5.84" y="14.4">o</tspan><tspan x="12.49" y="14.4">ft</tspan><tspan class="cls-8" x="20.59" y="14.4">w</tspan><tspan class="cls-11" x="29.7" y="14.4">a</tspan><tspan class="cls-4" x="36.11" y="14.4">r</tspan><tspan x="40.45" y="14.4">e specific</tspan><tspan x="0" y="28.8">p</tspan><tspan class="cls-3" x="6.96" y="28.8">r</tspan><tspan x="11.3" y="28.8">e</tspan><tspan class="cls-3" x="17.89" y="28.8">r</tspan><tspan x="22.24" y="28.8">equisi</tspan><tspan class="cls-5" x="54.44" y="28.8">t</tspan><tspan x="58.61" y="28.8">e</tspan><tspan class="cls-4" x="65.2" y="28.8">s</tspan><tspan x="70.98" y="28.8">.</tspan></text><text class="cls-2" transform="translate(407.22 291.47)"><tspan class="cls-12">V</tspan><tspan class="cls-11" x="6.95" y="0">alida</tspan><tspan class="cls-5" x="32.99" y="0">t</tspan><tspan x="37.15" y="0">e that the</tspan><tspan x="0" y="14.4">s</tspan><tspan class="cls-7" x="5.84" y="14.4">o</tspan><tspan x="12.49" y="14.4">ft</tspan><tspan class="cls-8" x="20.59" y="14.4">w</tspan><tspan class="cls-11" x="29.7" y="14.4">a</tspan><tspan class="cls-4" x="36.11" y="14.4">r</tspan><tspan x="40.45" y="14.4">e is </tspan><tspan class="cls-3" x="61.55" y="14.4">r</tspan><tspan x="65.89" y="14.4">eady </tspan><tspan class="cls-5" x="94.67" y="14.4">f</tspan><tspan class="cls-10" x="98.51" y="14.4">or</tspan><tspan x="0" y="28.8">us</tspan><tspan class="cls-9" x="12.66" y="28.8">e</tspan><tspan x="19.01" y="28.8">.</tspan></text><text class="cls-2" transform="translate(115.69 415)"><tspan class="cls-13">R</tspan><tspan x="7.5" y="0">eque</tspan><tspan class="cls-6" x="34.45" y="0">s</tspan><tspan x="40.21" y="0">t publishing</tspan><tspan x="0" y="14.4">app</tspan><tspan class="cls-4" x="20.33" y="14.4">r</tspan><tspan class="cls-14" x="24.67" y="14.4">o</tspan><tspan class="cls-15" x="31.3" y="14.4">v</tspan><tspan x="37.09" y="14.4">a</tspan><tspan class="cls-16" x="43.5" y="14.4">l</tspan><tspan x="46.88" y="14.4">.</tspan></text><text class="cls-2" transform="translate(261.59 415)">Publish <tspan class="cls-5" x="42.8" y="0">t</tspan><tspan x="46.97" y="0">o the IBM</tspan><tspan x="0" y="14.4">Cloud catalo</tspan><tspan class="cls-17" x="67.09" y="14.4">g</tspan><tspan x="73.58" y="14.4">.</tspan></text><rect class="cls-1" x="110.69" y="155.05" width="132.57" height="54.36"/><rect class="cls-1" x="256.59" y="155.05" width="132.57" height="54.36"/><text class="cls-2" transform="translate(261.59 171.45)"><tspan class="cls-18">P<tspan class="cls-3" x="7.15" y="0">r</tspan><tspan class="cls-14" x="11.5" y="0">o</tspan><tspan class="cls-11" x="18.12" y="0">vide </tspan><tspan class="cls-3" x="43.4" y="0">y</tspan><tspan class="cls-10" x="49.33" y="0">our </tspan></tspan><tspan x="0" y="14.4">cu</tspan><tspan class="cls-19" x="12.85" y="14.4">s</tspan><tspan class="cls-5" x="18.61" y="14.4">t</tspan><tspan x="22.78" y="14.4">omer suppo</tspan><tspan class="cls-20" x="87.09" y="14.4">r</tspan><tspan x="91.55" y="14.4">t</tspan><tspan class="cls-21" x="0" y="28.8">e</tspan><tspan x="6.44" y="28.8">xperien</tspan><tspan class="cls-22" x="46.88" y="28.8">c</tspan><tspan class="cls-9" x="52.85" y="28.8">e</tspan><tspan x="59.2" y="28.8">.</tspan></text><text class="cls-2" transform="translate(115.69 171.45)"><tspan class="cls-18">P<tspan class="cls-3" x="7.15" y="0">r</tspan><tspan class="cls-14" x="11.5" y="0">o</tspan><tspan class="cls-11" x="18.12" y="0">vide </tspan><tspan class="cls-3" x="43.4" y="0">y</tspan><tspan class="cls-10" x="49.33" y="0">our IBM</tspan></tspan><tspan x="0" y="14.4">Cloud catalog </tspan><tspan x="0" y="28.8">ent</tspan><tspan class="cls-23" x="17.62" y="28.8">r</tspan><tspan x="22.14" y="28.8">y detail</tspan><tspan class="cls-4" x="61.39" y="28.8">s</tspan><tspan class="cls-10" x="67.17" y="28.8">.</tspan></text><rect class="cls-1" x="110.69" y="33.86" width="132.57" height="54.36"/><rect class="cls-1" x="256.59" y="33.86" width="132.57" height="54.36"/><rect class="cls-1" x="402.22" y="33.86" width="132.57" height="54.36"/><text class="cls-2" transform="translate(115.69 57.46)"><tspan class="cls-18">P</tspan><tspan class="cls-3" x="7.15" y="0">r</tspan><tspan class="cls-14" x="11.5" y="0">o</tspan><tspan class="cls-11" x="18.12" y="0">vide </tspan><tspan class="cls-22" x="43.4" y="0">c</tspan><tspan x="49.37" y="0">ompa</tspan><tspan class="cls-24" x="79.93" y="0">n</tspan><tspan class="cls-11" x="86.65" y="0">y</tspan><tspan x="0" y="14.4">and p</tspan><tspan class="cls-3" x="29.98" y="14.4">r</tspan><tspan x="34.32" y="14.4">oduct detail</tspan><tspan class="cls-4" x="98.33" y="14.4">s</tspan><tspan x="104.11" y="14.4">.</tspan></text><text class="cls-2" transform="translate(261.59 50.26)">C<tspan class="cls-3" x="7.45" y="0">r</tspan><tspan x="11.8" y="0">ea</tspan><tspan class="cls-5" x="24.79" y="0">t</tspan><tspan x="28.96" y="0">e a </tspan><tspan class="cls-5" x="47.62" y="0">t</tspan><tspan x="51.78" y="0">e</tspan><tspan class="cls-19" x="58.37" y="0">s</tspan><tspan x="64.13" y="0">t </tspan><tspan x="0" y="14.4">e</tspan><tspan class="cls-14" x="6.59" y="14.4">n</tspan><tspan x="13.31" y="14.4">vi</tspan><tspan class="cls-3" x="22.21" y="14.4">r</tspan><tspan x="26.56" y="14.4">onment </tspan><tspan class="cls-5" x="71.02" y="14.4">t</tspan><tspan x="75.18" y="14.4">o </tspan><tspan class="cls-15" x="0" y="28.8">v</tspan><tspan x="5.8" y="28.8">alida</tspan><tspan class="cls-5" x="31.84" y="28.8">t</tspan><tspan x="36" y="28.8">e s</tspan><tspan class="cls-22" x="51.26" y="28.8">o</tspan><tspan class="cls-10" x="57.91" y="28.8">ft</tspan><tspan class="cls-15" x="66.01" y="28.8">w</tspan><tspan x="75.12" y="28.8">a</tspan><tspan class="cls-3" x="81.53" y="28.8">r</tspan><tspan class="cls-25" x="85.87" y="28.8">e</tspan><tspan x="92.22" y="28.8">.</tspan></text><text class="cls-2" transform="translate(407.22 50.26)">Set up a<tspan class="cls-22" x="43.62" y="0">cc</tspan><tspan x="55.55" y="0">e</tspan><tspan class="cls-7" x="62.13" y="0">s</tspan><tspan x="67.91" y="0">s </tspan><tspan class="cls-5" x="76.58" y="0">f</tspan><tspan x="80.42" y="0">or</tspan><tspan x="0" y="14.4">other </tspan><tspan class="cls-5" x="31.57" y="14.4">t</tspan><tspan x="35.74" y="14.4">eam</tspan><tspan x="0" y="28.8">member</tspan><tspan class="cls-4" x="45.49" y="28.8">s</tspan><tspan x="51.28" y="28.8">.</tspan></text><rect class="cls-26" y="241.95" width="28.02" height="120.59"/><rect class="cls-27" y="360.16" width="28.02" height="116.83"/><circle class="cls-28" cx="49.2" cy="418.57" r="45.37"/><text class="cls-2" transform="translate(29.47 422.2)">Publish</text><text class="cls-29" transform="translate(112.47 107.35)">* Comple<tspan class="cls-4" x="48.42" y="0">t</tspan><tspan x="52.2" y="0">ed </tspan><tspan class="cls-9" x="68.16" y="0">b</tspan><tspan x="74.78" y="0">y a </tspan><tspan class="cls-3" x="93.25" y="0">t</tspan><tspan x="97.03" y="0">eam member who is </tspan><tspan class="cls-5" x="206.59" y="0">f</tspan><tspan x="210.22" y="0">amiliar with the busine</tspan><tspan class="cls-30" x="331.52" y="0">s</tspan><tspan x="337.1" y="0">s </tspan><tspan class="cls-6" x="345.58" y="0">c</tspan><tspan x="351.35" y="0">as</tspan><tspan class="cls-9" x="364" y="0">e</tspan><tspan x="369.89" y="0">.</tspan></text><text class="cls-29" transform="translate(112.48 226.99)">* Comple<tspan class="cls-4" x="48.42" y="0">t</tspan><tspan x="52.2" y="0">ed </tspan><tspan class="cls-9" x="68.16" y="0">b</tspan><tspan x="74.78" y="0">y a </tspan><tspan class="cls-3" x="93.25" y="0">t</tspan><tspan x="97.03" y="0">eam member who is </tspan><tspan class="cls-5" x="206.59" y="0">f</tspan><tspan x="210.22" y="0">amiliar with mar</tspan><tspan class="cls-25" x="298.13" y="0">k</tspan><tspan x="304.12" y="0">eting and cu</tspan><tspan class="cls-31" x="369.17" y="0">s</tspan><tspan class="cls-4" x="374.62" y="0">t</tspan><tspan x="378.4" y="0">omer suppo</tspan><tspan class="cls-32" x="441.23" y="0">r</tspan><tspan class="cls-10" x="445.65" y="0">t de</tspan><tspan class="cls-4" x="465.45" y="0">t</tspan><tspan x="469.23" y="0">ail</tspan><tspan class="cls-3" x="482.56" y="0">s</tspan><tspan class="cls-11" x="488.15" y="0">.</tspan></text><text class="cls-29" transform="translate(112.47 347.61)">* Comple<tspan class="cls-4" x="48.42" y="0">t</tspan><tspan x="52.2" y="0">ed </tspan><tspan class="cls-9" x="68.16" y="0">b</tspan><tspan x="74.78" y="0">y a </tspan><tspan class="cls-3" x="93.25" y="0">t</tspan><tspan x="97.03" y="0">eam member who is </tspan><tspan class="cls-5" x="206.59" y="0">f</tspan><tspan x="210.22" y="0">amiliar with </tspan><tspan class="cls-3" x="276.6" y="0">t</tspan><tspan x="280.38" y="0">echni</tspan><tspan class="cls-6" x="309.09" y="0">c</tspan><tspan x="314.86" y="0">al de</tspan><tspan class="cls-4" x="340.99" y="0">t</tspan><tspan class="cls-11" x="344.77" y="0">ail</tspan><tspan class="cls-4" x="358.1" y="0">s</tspan><tspan class="cls-11" x="363.69" y="0">.</tspan></text><circle class="cls-33" cx="49.2" cy="302.24" r="45.37"/><text class="cls-2" transform="translate(26.11 305.87)">Onboa<tspan class="cls-22" x="35.4" y="0">r</tspan><tspan x="39.73" y="0">d</tspan></text><rect class="cls-34" x="0.02" y="121.91" width="28.02" height="120.59"/><circle class="cls-35" cx="49.2" cy="182.2" r="45.37"/><text class="cls-2" transform="translate(32.03 185.82)">Define</text><rect class="cls-36" x="0.02" y="0.74" width="28.02" height="121.43"/><circle class="cls-37" cx="49.2" cy="61.04" r="45.37"/><text class="cls-2" transform="translate(36.33 64.66)">Sta<tspan class="cls-20" x="17.59" y="0">r</tspan><tspan x="22.04" y="0">t</tspan></text><rect class="cls-1" x="402.22" y="155.05" width="132.57" height="54.36"/><text class="cls-2" transform="translate(407.22 178.65)">Choose <tspan class="cls-3" x="42.97" y="0">y</tspan><tspan x="48.9" y="0">our pricing</tspan><tspan x="0" y="14.4">plan: f</tspan><tspan class="cls-4" x="33.67" y="14.4">r</tspan><tspan x="38.02" y="14.4">ee or </tspan><tspan class="cls-12" x="67.98" y="14.4">BY</tspan><tspan x="82.21" y="14.4">O</tspan><tspan class="cls-38" x="90.71" y="14.4">L</tspan><tspan x="97.02" y="14.4">.</tspan></text><rect class="cls-1" x="547.84" y="33.86" width="132.57" height="54.36"/><text class="cls-2" transform="translate(552.84 57.46)">Confirm le<tspan class="cls-39" x="55.35" y="0">g</tspan><tspan x="61.66" y="0">al </tspan><tspan x="0" y="14.4">ag</tspan><tspan class="cls-3" x="12.74" y="14.4">r</tspan><tspan x="17.09" y="14.4">eement with IBM. </tspan></text></g></svg>